<svg width="96" height="96" viewBox="0 0 810 550" fill="none" xmlns="http://www.w3.org/2000/svg">
<path d="M200.115 173.002C175.065 101.607 714.115 84.502 714.115 84.502L758.115 373.002H592.115M200.115 173.002C220.979 232.467 408.03 278.156 408.03 278.156C408.03 278.156 574.513 312.491 592.115 373.002M200.115 173.002L53.115 173.002L110.945 481.831C110.945 481.831 612.421 442.811 592.115 373.002M13 545H797C801.418 545 805 541.418 805 537V13C805 8.58172 801.418 5 797 5H13C8.58172 5 5 8.58171 5 13V537C5 541.418 8.58171 545 13 545Z" stroke="white" stroke-width="24"/>
</svg>
